<svg width="210mm" height="289mm" xmlns="http://www.w3.org/2000/svg">
<path d="M 433 756 Q 599 548 216 709" stroke="black" fill-opacity="0" stroke-width="0.1"/>
<path d="M 421 758 Q 602 515 206 701" stroke="black" fill-opacity="0" stroke-width="0.1"/>
<path d="M 409 760 Q 599 481 197 693" stroke="black" fill-opacity="0" stroke-width="0.1"/>
<path d="M 397 762 Q 592 448 189 684" stroke="black" fill-opacity="0" stroke-width="0.1"/>
<path d="M 385 763 Q 580 416 181 675" stroke="black" fill-opacity="0" stroke-width="0.1"/>
<path d="M 373 763 Q 564 387 173 665" stroke="black" fill-opacity="0" stroke-width="0.1"/>
<path d="M 360 763 Q 543 360 166 655" stroke="black" fill-opacity="0" stroke-width="0.1"/>
<path d="M 348 762 Q 519 336 159 645" stroke="black" fill-opacity="0" stroke-width="0.1"/>
<path d="M 336 761 Q 491 317 153 634" stroke="black" fill-opacity="0" stroke-width="0.1"/>
<path d="M 324 759 Q 461 301 147 623" stroke="black" fill-opacity="0" stroke-width="0.1"/>
<path d="M 312 756 Q 429 291 142 612" stroke="black" fill-opacity="0" stroke-width="0.1"/>
<path d="M 300 753 Q 395 285 137 601" stroke="black" fill-opacity="0" stroke-width="0.1"/>
<path d="M 288 749 Q 362 283 133 589" stroke="black" fill-opacity="0" stroke-width="0.1"/>
<path d="M 277 745 Q 328 287 130 578" stroke="black" fill-opacity="0" stroke-width="0.1"/>
<path d="M 266 740 Q 295 296 127 566" stroke="black" fill-opacity="0" stroke-width="0.1"/>
<path d="M 255 734 Q 264 310 125 554" stroke="black" fill-opacity="0" stroke-width="0.1"/>
<path d="M 244 728 Q 236 328 123 541" stroke="black" fill-opacity="0" stroke-width="0.1"/>
<path d="M 234 722 Q 210 350 122 529" stroke="black" fill-opacity="0" stroke-width="0.1"/>
<path d="M 223 715 Q 188 375 122 517" stroke="black" fill-opacity="0" stroke-width="0.1"/>
<path d="M 214 707 Q 169 404 122 505" stroke="black" fill-opacity="0" stroke-width="0.1"/>
<path d="M 204 699 Q 155 435 122 492" stroke="black" fill-opacity="0" stroke-width="0.1"/>
<path d="M 195 691 Q 146 467 124 480" stroke="black" fill-opacity="0" stroke-width="0.1"/>
<path d="M 187 682 Q 142 501 126 468" stroke="black" fill-opacity="0" stroke-width="0.1"/>
<path d="M 179 673 Q 143 534 128 456" stroke="black" fill-opacity="0" stroke-width="0.1"/>
<path d="M 171 663 Q 148 568 131 444" stroke="black" fill-opacity="0" stroke-width="0.1"/>
<path d="M 164 653 Q 159 600 135 432" stroke="black" fill-opacity="0" stroke-width="0.1"/>
<path d="M 158 643 Q 174 630 139 421" stroke="black" fill-opacity="0" stroke-width="0.1"/>
<path d="M 152 632 Q 193 658 144 410" stroke="black" fill-opacity="0" stroke-width="0.1"/>
<path d="M 146 621 Q 216 683 149 399" stroke="black" fill-opacity="0" stroke-width="0.1"/>
<path d="M 141 610 Q 243 704 155 388" stroke="black" fill-opacity="0" stroke-width="0.1"/>
<path d="M 137 598 Q 272 721 162 377" stroke="black" fill-opacity="0" stroke-width="0.1"/>
<path d="M 133 587 Q 303 733 169 367" stroke="black" fill-opacity="0" stroke-width="0.1"/>
<path d="M 129 575 Q 336 741 176 357" stroke="black" fill-opacity="0" stroke-width="0.1"/>
<path d="M 127 563 Q 370 743 184 348" stroke="black" fill-opacity="0" stroke-width="0.1"/>
<path d="M 124 551 Q 404 741 192 339" stroke="black" fill-opacity="0" stroke-width="0.1"/>
<path d="M 123 539 Q 437 734 201 330" stroke="black" fill-opacity="0" stroke-width="0.1"/>
<path d="M 122 527 Q 469 722 210 322" stroke="black" fill-opacity="0" stroke-width="0.1"/>
<path d="M 122 514 Q 498 705 220 315" stroke="black" fill-opacity="0" stroke-width="0.1"/>
<path d="M 122 502 Q 525 685 230 307" stroke="black" fill-opacity="0" stroke-width="0.1"/>
<path d="M 123 490 Q 548 660 240 301" stroke="black" fill-opacity="0" stroke-width="0.1"/>
<path d="M 124 478 Q 568 633 251 295" stroke="black" fill-opacity="0" stroke-width="0.1"/>
<path d="M 126 466 Q 584 603 261 289" stroke="black" fill-opacity="0" stroke-width="0.1"/>
<path d="M 129 454 Q 594 570 273 284" stroke="black" fill-opacity="0" stroke-width="0.1"/>
<path d="M 132 442 Q 600 537 284 279" stroke="black" fill-opacity="0" stroke-width="0.1"/>
<path d="M 136 430 Q 601 503 296 275" stroke="black" fill-opacity="0" stroke-width="0.1"/>
<path d="M 140 419 Q 597 470 307 272" stroke="black" fill-opacity="0" stroke-width="0.1"/>
<path d="M 145 407 Q 589 437 319 269" stroke="black" fill-opacity="0" stroke-width="0.1"/>
<path d="M 151 396 Q 575 406 331 267" stroke="black" fill-opacity="0" stroke-width="0.1"/>
<path d="M 157 386 Q 557 377 343 265" stroke="black" fill-opacity="0" stroke-width="0.1"/>
<path d="M 163 375 Q 535 352 356 264" stroke="black" fill-opacity="0" stroke-width="0.1"/>
<path d="M 170 365 Q 510 329 368 263" stroke="black" fill-opacity="0" stroke-width="0.1"/>
<path d="M 178 355 Q 481 311 380 263" stroke="black" fill-opacity="0" stroke-width="0.1"/>
<path d="M 186 346 Q 450 297 392 264" stroke="black" fill-opacity="0" stroke-width="0.1"/>
<path d="M 194 337 Q 418 288 405 265" stroke="black" fill-opacity="0" stroke-width="0.1"/>
<path d="M 203 329 Q 384 284 417 267" stroke="black" fill-opacity="0" stroke-width="0.1"/>
<path d="M 212 321 Q 350 284 429 270" stroke="black" fill-opacity="0" stroke-width="0.1"/>
<path d="M 222 313 Q 317 290 441 273" stroke="black" fill-opacity="0" stroke-width="0.1"/>
<path d="M 232 306 Q 285 300 452 277" stroke="black" fill-opacity="0" stroke-width="0.1"/>
<path d="M 242 299 Q 254 315 464 281" stroke="black" fill-opacity="0" stroke-width="0.1"/>
<path d="M 253 293 Q 227 335 475 286" stroke="black" fill-opacity="0" stroke-width="0.1"/>
<path d="M 264 288 Q 202 358 486 291" stroke="black" fill-opacity="0" stroke-width="0.1"/>
<path d="M 275 283 Q 181 384 497 297" stroke="black" fill-opacity="0" stroke-width="0.1"/>
<path d="M 286 278 Q 164 414 507 303" stroke="black" fill-opacity="0" stroke-width="0.1"/>
<path d="M 298 274 Q 152 445 518 310" stroke="black" fill-opacity="0" stroke-width="0.1"/>
<path d="M 310 271 Q 144 478 527 318" stroke="black" fill-opacity="0" stroke-width="0.1"/>
<path d="M 322 268 Q 142 512 537 326" stroke="black" fill-opacity="0" stroke-width="0.1"/>
<path d="M 334 266 Q 144 546 546 334" stroke="black" fill-opacity="0" stroke-width="0.1"/>
<path d="M 346 265 Q 151 579 554 343" stroke="black" fill-opacity="0" stroke-width="0.1"/>
<path d="M 358 264 Q 163 610 563 352" stroke="black" fill-opacity="0" stroke-width="0.1"/>
<path d="M 371 263 Q 180 640 570 361" stroke="black" fill-opacity="0" stroke-width="0.1"/>
<path d="M 383 264 Q 200 667 577 371" stroke="black" fill-opacity="0" stroke-width="0.1"/>
<path d="M 395 264 Q 225 690 584 382" stroke="black" fill-opacity="0" stroke-width="0.1"/>
<path d="M 407 266 Q 252 710 590 392" stroke="black" fill-opacity="0" stroke-width="0.1"/>
<path d="M 419 268 Q 282 725 596 403" stroke="black" fill-opacity="0" stroke-width="0.1"/>
<path d="M 431 271 Q 314 736 601 414" stroke="black" fill-opacity="0" stroke-width="0.1"/>
<path d="M 443 274 Q 348 742 606 426" stroke="black" fill-opacity="0" stroke-width="0.1"/>
<path d="M 455 278 Q 381 743 610 437" stroke="black" fill-opacity="0" stroke-width="0.1"/>
<path d="M 466 282 Q 415 739 613 449" stroke="black" fill-opacity="0" stroke-width="0.1"/>
<path d="M 478 287 Q 448 730 616 461" stroke="black" fill-opacity="0" stroke-width="0.1"/>
<path d="M 488 292 Q 479 717 618 473" stroke="black" fill-opacity="0" stroke-width="0.1"/>
<path d="M 499 298 Q 507 699 620 485" stroke="black" fill-opacity="0" stroke-width="0.1"/>
<path d="M 510 305 Q 533 677 621 497" stroke="black" fill-opacity="0" stroke-width="0.1"/>
<path d="M 520 312 Q 555 651 622 510" stroke="black" fill-opacity="0" stroke-width="0.1"/>
<path d="M 529 319 Q 574 623 621 522" stroke="black" fill-opacity="0" stroke-width="0.1"/>
<path d="M 539 327 Q 588 592 621 534" stroke="black" fill-opacity="0" stroke-width="0.1"/>
<path d="M 548 336 Q 597 559 619 546" stroke="black" fill-opacity="0" stroke-width="0.1"/>
<path d="M 556 345 Q 601 526 617 559" stroke="black" fill-opacity="0" stroke-width="0.1"/>
<path d="M 564 354 Q 601 492 615 571" stroke="black" fill-opacity="0" stroke-width="0.1"/>
<path d="M 572 364 Q 595 459 612 582" stroke="black" fill-opacity="0" stroke-width="0.1"/>
<path d="M 579 374 Q 585 427 608 594" stroke="black" fill-opacity="0" stroke-width="0.1"/>
<path d="M 585 384 Q 570 396 604 606" stroke="black" fill-opacity="0" stroke-width="0.1"/>
<path d="M 592 395 Q 550 368 599 617" stroke="black" fill-opacity="0" stroke-width="0.1"/>
<path d="M 597 405 Q 527 344 594 628" stroke="black" fill-opacity="0" stroke-width="0.1"/>
<path d="M 602 417 Q 500 323 588 639" stroke="black" fill-opacity="0" stroke-width="0.1"/>
<path d="M 607 428 Q 471 306 581 649" stroke="black" fill-opacity="0" stroke-width="0.1"/>
<path d="M 610 440 Q 440 294 574 659" stroke="black" fill-opacity="0" stroke-width="0.1"/>
<path d="M 614 452 Q 407 286 567 669" stroke="black" fill-opacity="0" stroke-width="0.1"/>
<path d="M 617 464 Q 373 283 559 678" stroke="black" fill-opacity="0" stroke-width="0.1"/>
<path d="M 619 476 Q 339 286 551 687" stroke="black" fill-opacity="0" stroke-width="0.1"/>
<path d="M 620 488 Q 306 293 542 696" stroke="black" fill-opacity="0" stroke-width="0.1"/>
<path d="M 621 500 Q 274 305 533 704" stroke="black" fill-opacity="0" stroke-width="0.1"/>
<path d="M 622 512 Q 245 321 523 712" stroke="black" fill-opacity="0" stroke-width="0.1"/>
<path d="M 621 525 Q 218 342 513 719" stroke="black" fill-opacity="0" stroke-width="0.1"/>
<path d="M 620 537 Q 195 366 503 726" stroke="black" fill-opacity="0" stroke-width="0.1"/>
<path d="M 619 549 Q 175 394 493 732" stroke="black" fill-opacity="0" stroke-width="0.1"/>
<path d="M 617 561 Q 160 424 482 738" stroke="black" fill-opacity="0" stroke-width="0.1"/>
<path d="M 614 573 Q 149 456 471 743" stroke="black" fill-opacity="0" stroke-width="0.1"/>
<path d="M 611 585 Q 143 489 459 747" stroke="black" fill-opacity="0" stroke-width="0.1"/>
<path d="M 607 597 Q 142 523 448 751" stroke="black" fill-opacity="0" stroke-width="0.1"/>
<path d="M 603 608 Q 146 557 436 755" stroke="black" fill-opacity="0" stroke-width="0.1"/>
<path d="M 598 619 Q 155 589 424 758" stroke="black" fill-opacity="0" stroke-width="0.1"/>
<path d="M 593 630 Q 168 621 412 760" stroke="black" fill-opacity="0" stroke-width="0.1"/>
<path d="M 587 641 Q 186 649 400 762" stroke="black" fill-opacity="0" stroke-width="0.1"/>
<path d="M 580 651 Q 208 675 387 763" stroke="black" fill-opacity="0" stroke-width="0.1"/>
<path d="M 573 661 Q 233 697 375 763" stroke="black" fill-opacity="0" stroke-width="0.1"/>
<path d="M 565 671 Q 262 715 363 763" stroke="black" fill-opacity="0" stroke-width="0.1"/>
<path d="M 557 680 Q 293 729 351 762" stroke="black" fill-opacity="0" stroke-width="0.1"/>
<path d="M 549 689 Q 325 739 338 761" stroke="black" fill-opacity="0" stroke-width="0.1"/>
<path d="M 540 698 Q 359 743 326 759" stroke="black" fill-opacity="0" stroke-width="0.1"/>
<path d="M 531 706 Q 393 742 314 757" stroke="black" fill-opacity="0" stroke-width="0.1"/>
<path d="M 521 713 Q 426 737 302 754" stroke="black" fill-opacity="0" stroke-width="0.1"/>
<path d="M 511 721 Q 458 726 291 750" stroke="black" fill-opacity="0" stroke-width="0.1"/>
<path d="M 501 727 Q 489 711 279 746" stroke="black" fill-opacity="0" stroke-width="0.1"/>
<path d="M 490 733 Q 516 692 268 741" stroke="black" fill-opacity="0" stroke-width="0.1"/>
<path d="M 479 739 Q 541 669 257 735" stroke="black" fill-opacity="0" stroke-width="0.1"/>
<path d="M 468 744 Q 562 642 246 730" stroke="black" fill-opacity="0" stroke-width="0.1"/>
<path d="M 457 748 Q 579 613 236 723" stroke="black" fill-opacity="0" stroke-width="0.1"/>
<path d="M 445 752 Q 591 581 226 716" stroke="black" fill-opacity="0" stroke-width="0.1"/>
</svg>
