<svg width="210mm" height="289mm" xmlns="http://www.w3.org/2000/svg">
<rect width="100%" height="100%" fill="white"/>
<path d="M 522 513 Q 292 574 291 781" stroke="black" fill-opacity="0" stroke-width="0.1"/>
<path d="M 521 523 Q 288 569 258 769" stroke="black" fill-opacity="0" stroke-width="0.1"/>
<path d="M 520 532 Q 285 564 227 753" stroke="black" fill-opacity="0" stroke-width="0.1"/>
<path d="M 519 541 Q 282 558 198 733" stroke="black" fill-opacity="0" stroke-width="0.1"/>
<path d="M 517 551 Q 280 552 172 709" stroke="black" fill-opacity="0" stroke-width="0.1"/>
<path d="M 514 560 Q 277 547 149 683" stroke="black" fill-opacity="0" stroke-width="0.1"/>
<path d="M 511 568 Q 275 541 129 654" stroke="black" fill-opacity="0" stroke-width="0.1"/>
<path d="M 507 577 Q 274 534 114 622" stroke="black" fill-opacity="0" stroke-width="0.1"/>
<path d="M 503 586 Q 273 528 102 589" stroke="black" fill-opacity="0" stroke-width="0.1"/>
<path d="M 498 594 Q 272 522 95 554" stroke="black" fill-opacity="0" stroke-width="0.1"/>
<path d="M 493 601 Q 272 516 92 519" stroke="black" fill-opacity="0" stroke-width="0.1"/>
<path d="M 487 609 Q 272 509 93 484" stroke="black" fill-opacity="0" stroke-width="0.1"/>
<path d="M 481 616 Q 272 503 99 450" stroke="black" fill-opacity="0" stroke-width="0.1"/>
<path d="M 474 623 Q 273 497 109 416" stroke="black" fill-opacity="0" stroke-width="0.1"/>
<path d="M 467 629 Q 274 491 123 384" stroke="black" fill-opacity="0" stroke-width="0.1"/>
<path d="M 460 635 Q 276 485 141 354" stroke="black" fill-opacity="0" stroke-width="0.1"/>
<path d="M 452 640 Q 278 479 163 326" stroke="black" fill-opacity="0" stroke-width="0.1"/>
<path d="M 444 645 Q 280 473 188 301" stroke="black" fill-opacity="0" stroke-width="0.1"/>
<path d="M 435 649 Q 283 467 216 280" stroke="black" fill-opacity="0" stroke-width="0.1"/>
<path d="M 427 653 Q 286 462 247 263" stroke="black" fill-opacity="0" stroke-width="0.1"/>
<path d="M 418 656 Q 289 457 279 249" stroke="black" fill-opacity="0" stroke-width="0.1"/>
<path d="M 409 659 Q 293 451 313 239" stroke="black" fill-opacity="0" stroke-width="0.1"/>
<path d="M 400 661 Q 297 447 348 234" stroke="black" fill-opacity="0" stroke-width="0.1"/>
<path d="M 390 662 Q 301 442 383 234" stroke="black" fill-opacity="0" stroke-width="0.1"/>
<path d="M 381 663 Q 306 438 418 237" stroke="black" fill-opacity="0" stroke-width="0.1"/>
<path d="M 372 663 Q 311 434 452 245" stroke="black" fill-opacity="0" stroke-width="0.1"/>
<path d="M 362 663 Q 316 430 485 257" stroke="black" fill-opacity="0" stroke-width="0.1"/>
<path d="M 353 662 Q 321 427 516 274" stroke="black" fill-opacity="0" stroke-width="0.1"/>
<path d="M 343 661 Q 327 424 545 294" stroke="black" fill-opacity="0" stroke-width="0.1"/>
<path d="M 334 659 Q 332 421 571 317" stroke="black" fill-opacity="0" stroke-width="0.1"/>
<path d="M 325 656 Q 338 419 594 344" stroke="black" fill-opacity="0" stroke-width="0.1"/>
<path d="M 316 653 Q 344 417 614 373" stroke="black" fill-opacity="0" stroke-width="0.1"/>
<path d="M 308 649 Q 350 416 630 405" stroke="black" fill-opacity="0" stroke-width="0.1"/>
<path d="M 299 645 Q 357 414 641 438" stroke="black" fill-opacity="0" stroke-width="0.1"/>
<path d="M 291 640 Q 363 414 649 472" stroke="black" fill-opacity="0" stroke-width="0.1"/>
<path d="M 283 635 Q 369 413 651 507" stroke="black" fill-opacity="0" stroke-width="0.1"/>
<path d="M 276 629 Q 375 413 650 542" stroke="black" fill-opacity="0" stroke-width="0.1"/>
<path d="M 269 623 Q 382 414 644 577" stroke="black" fill-opacity="0" stroke-width="0.1"/>
<path d="M 262 616 Q 388 415 634 611" stroke="black" fill-opacity="0" stroke-width="0.1"/>
<path d="M 256 609 Q 394 416 620 643" stroke="black" fill-opacity="0" stroke-width="0.1"/>
<path d="M 250 601 Q 400 417 602 673" stroke="black" fill-opacity="0" stroke-width="0.1"/>
<path d="M 245 594 Q 406 419 580 700" stroke="black" fill-opacity="0" stroke-width="0.1"/>
<path d="M 240 586 Q 412 422 555 725" stroke="black" fill-opacity="0" stroke-width="0.1"/>
<path d="M 236 577 Q 418 424 527 746" stroke="black" fill-opacity="0" stroke-width="0.1"/>
<path d="M 232 568 Q 423 428 496 764" stroke="black" fill-opacity="0" stroke-width="0.1"/>
<path d="M 229 560 Q 428 431 464 778" stroke="black" fill-opacity="0" stroke-width="0.1"/>
<path d="M 226 551 Q 433 435 430 787" stroke="black" fill-opacity="0" stroke-width="0.1"/>
<path d="M 224 541 Q 438 439 395 792" stroke="black" fill-opacity="0" stroke-width="0.1"/>
<path d="M 223 532 Q 443 443 360 793" stroke="black" fill-opacity="0" stroke-width="0.1"/>
<path d="M 222 523 Q 447 448 325 789" stroke="black" fill-opacity="0" stroke-width="0.1"/>
<path d="M 222 513 Q 451 453 291 781" stroke="black" fill-opacity="0" stroke-width="0.1"/>
<path d="M 222 504 Q 455 458 258 769" stroke="black" fill-opacity="0" stroke-width="0.1"/>
<path d="M 223 494 Q 458 463 227 753" stroke="black" fill-opacity="0" stroke-width="0.1"/>
<path d="M 224 485 Q 461 468 198 733" stroke="black" fill-opacity="0" stroke-width="0.1"/>
<path d="M 226 476 Q 464 474 172 709" stroke="black" fill-opacity="0" stroke-width="0.1"/>
<path d="M 229 467 Q 466 480 149 683" stroke="black" fill-opacity="0" stroke-width="0.1"/>
<path d="M 232 458 Q 468 486 129 654" stroke="black" fill-opacity="0" stroke-width="0.1"/>
<path d="M 236 449 Q 469 492 114 622" stroke="black" fill-opacity="0" stroke-width="0.1"/>
<path d="M 240 441 Q 470 498 102 589" stroke="black" fill-opacity="0" stroke-width="0.1"/>
<path d="M 245 433 Q 471 505 95 554" stroke="black" fill-opacity="0" stroke-width="0.1"/>
<path d="M 250 425 Q 472 511 92 519" stroke="black" fill-opacity="0" stroke-width="0.1"/>
<path d="M 256 418 Q 471 517 93 484" stroke="black" fill-opacity="0" stroke-width="0.1"/>
<path d="M 262 411 Q 471 523 99 450" stroke="black" fill-opacity="0" stroke-width="0.1"/>
<path d="M 269 404 Q 470 530 109 416" stroke="black" fill-opacity="0" stroke-width="0.1"/>
<path d="M 276 398 Q 469 536 123 384" stroke="black" fill-opacity="0" stroke-width="0.1"/>
<path d="M 283 392 Q 467 542 141 354" stroke="black" fill-opacity="0" stroke-width="0.1"/>
<path d="M 291 387 Q 465 548 163 326" stroke="black" fill-opacity="0" stroke-width="0.1"/>
<path d="M 299 382 Q 463 554 188 301" stroke="black" fill-opacity="0" stroke-width="0.1"/>
<path d="M 308 378 Q 460 559 216 280" stroke="black" fill-opacity="0" stroke-width="0.1"/>
<path d="M 316 374 Q 457 565 247 263" stroke="black" fill-opacity="0" stroke-width="0.1"/>
<path d="M 325 371 Q 454 570 279 249" stroke="black" fill-opacity="0" stroke-width="0.1"/>
<path d="M 334 368 Q 450 575 313 239" stroke="black" fill-opacity="0" stroke-width="0.1"/>
<path d="M 343 366 Q 446 580 348 234" stroke="black" fill-opacity="0" stroke-width="0.1"/>
<path d="M 353 364 Q 442 584 383 234" stroke="black" fill-opacity="0" stroke-width="0.1"/>
<path d="M 362 364 Q 437 589 418 237" stroke="black" fill-opacity="0" stroke-width="0.1"/>
<path d="M 372 363 Q 432 593 452 245" stroke="black" fill-opacity="0" stroke-width="0.1"/>
<path d="M 381 364 Q 427 596 485 257" stroke="black" fill-opacity="0" stroke-width="0.1"/>
<path d="M 390 364 Q 422 600 516 274" stroke="black" fill-opacity="0" stroke-width="0.1"/>
<path d="M 400 366 Q 416 603 545 294" stroke="black" fill-opacity="0" stroke-width="0.1"/>
<path d="M 409 368 Q 411 605 571 317" stroke="black" fill-opacity="0" stroke-width="0.1"/>
<path d="M 418 371 Q 405 608 594 344" stroke="black" fill-opacity="0" stroke-width="0.1"/>
<path d="M 427 374 Q 399 609 614 373" stroke="black" fill-opacity="0" stroke-width="0.1"/>
<path d="M 435 378 Q 393 611 630 405" stroke="black" fill-opacity="0" stroke-width="0.1"/>
<path d="M 444 382 Q 387 612 641 438" stroke="black" fill-opacity="0" stroke-width="0.1"/>
<path d="M 452 387 Q 380 613 649 472" stroke="black" fill-opacity="0" stroke-width="0.1"/>
<path d="M 460 392 Q 374 613 651 507" stroke="black" fill-opacity="0" stroke-width="0.1"/>
<path d="M 467 398 Q 368 613 650 542" stroke="black" fill-opacity="0" stroke-width="0.1"/>
<path d="M 474 404 Q 361 613 644 577" stroke="black" fill-opacity="0" stroke-width="0.1"/>
<path d="M 481 411 Q 355 612 634 611" stroke="black" fill-opacity="0" stroke-width="0.1"/>
<path d="M 487 418 Q 349 611 620 643" stroke="black" fill-opacity="0" stroke-width="0.1"/>
<path d="M 493 425 Q 343 609 602 673" stroke="black" fill-opacity="0" stroke-width="0.1"/>
<path d="M 498 433 Q 337 607 580 700" stroke="black" fill-opacity="0" stroke-width="0.1"/>
<path d="M 503 441 Q 331 605 555 725" stroke="black" fill-opacity="0" stroke-width="0.1"/>
<path d="M 507 449 Q 326 602 527 746" stroke="black" fill-opacity="0" stroke-width="0.1"/>
<path d="M 511 458 Q 320 599 496 764" stroke="black" fill-opacity="0" stroke-width="0.1"/>
<path d="M 514 467 Q 315 596 464 778" stroke="black" fill-opacity="0" stroke-width="0.1"/>
<path d="M 517 476 Q 310 592 430 787" stroke="black" fill-opacity="0" stroke-width="0.1"/>
<path d="M 519 485 Q 305 588 395 792" stroke="black" fill-opacity="0" stroke-width="0.1"/>
<path d="M 520 494 Q 300 584 360 793" stroke="black" fill-opacity="0" stroke-width="0.1"/>
<path d="M 521 504 Q 296 579 325 789" stroke="black" fill-opacity="0" stroke-width="0.1"/>
</svg>
