<svg width="210mm" height="289mm" xmlns="http://www.w3.org/2000/svg">
<path d="M 672 513 Q 722 513 72 513" stroke="black" fill-opacity="0" stroke-width="0.2"/>
<path d="M 671 521 Q 721 530 72 528" stroke="black" fill-opacity="0" stroke-width="0.2"/>
<path d="M 671 528 Q 720 548 73 543" stroke="black" fill-opacity="0" stroke-width="0.2"/>
<path d="M 671 535 Q 718 565 75 557" stroke="black" fill-opacity="0" stroke-width="0.2"/>
<path d="M 670 543 Q 715 582 77 572" stroke="black" fill-opacity="0" stroke-width="0.2"/>
<path d="M 669 550 Q 711 598 81 586" stroke="black" fill-opacity="0" stroke-width="0.2"/>
<path d="M 668 557 Q 706 615 84 600" stroke="black" fill-opacity="0" stroke-width="0.2"/>
<path d="M 667 565 Q 701 631 89 614" stroke="black" fill-opacity="0" stroke-width="0.2"/>
<path d="M 666 572 Q 695 647 94 628" stroke="black" fill-opacity="0" stroke-width="0.2"/>
<path d="M 664 579 Q 688 663 100 642" stroke="black" fill-opacity="0" stroke-width="0.2"/>
<path d="M 663 586 Q 680 678 107 655" stroke="black" fill-opacity="0" stroke-width="0.2"/>
<path d="M 661 593 Q 672 693 114 668" stroke="black" fill-opacity="0" stroke-width="0.2"/>
<path d="M 659 600 Q 663 708 122 680" stroke="black" fill-opacity="0" stroke-width="0.2"/>
<path d="M 656 607 Q 653 722 131 692" stroke="black" fill-opacity="0" stroke-width="0.2"/>
<path d="M 654 614 Q 642 735 140 704" stroke="black" fill-opacity="0" stroke-width="0.2"/>
<path d="M 651 621 Q 631 748 149 715" stroke="black" fill-opacity="0" stroke-width="0.2"/>
<path d="M 649 628 Q 619 761 159 725" stroke="black" fill-opacity="0" stroke-width="0.2"/>
<path d="M 646 635 Q 607 773 170 736" stroke="black" fill-opacity="0" stroke-width="0.2"/>
<path d="M 643 642 Q 594 784 181 745" stroke="black" fill-opacity="0" stroke-width="0.2"/>
<path d="M 640 648 Q 580 794 193 754" stroke="black" fill-opacity="0" stroke-width="0.2"/>
<path d="M 636 655 Q 566 804 205 763" stroke="black" fill-opacity="0" stroke-width="0.2"/>
<path d="M 633 661 Q 551 813 217 771" stroke="black" fill-opacity="0" stroke-width="0.2"/>
<path d="M 629 668 Q 537 822 230 778" stroke="black" fill-opacity="0" stroke-width="0.2"/>
<path d="M 625 674 Q 521 830 243 784" stroke="black" fill-opacity="0" stroke-width="0.2"/>
<path d="M 621 680 Q 505 837 257 790" stroke="black" fill-opacity="0" stroke-width="0.2"/>
<path d="M 617 686 Q 489 843 270 796" stroke="black" fill-opacity="0" stroke-width="0.2"/>
<path d="M 613 692 Q 473 848 284 800" stroke="black" fill-opacity="0" stroke-width="0.2"/>
<path d="M 608 698 Q 457 853 299 804" stroke="black" fill-opacity="0" stroke-width="0.2"/>
<path d="M 603 704 Q 440 857 313 808" stroke="black" fill-opacity="0" stroke-width="0.2"/>
<path d="M 599 709 Q 423 859 328 810" stroke="black" fill-opacity="0" stroke-width="0.2"/>
<path d="M 594 715 Q 406 862 342 812" stroke="black" fill-opacity="0" stroke-width="0.2"/>
<path d="M 589 720 Q 389 863 357 813" stroke="black" fill-opacity="0" stroke-width="0.2"/>
<path d="M 584 725 Q 372 863 372 813" stroke="black" fill-opacity="0" stroke-width="0.2"/>
<path d="M 578 731 Q 354 863 386 813" stroke="black" fill-opacity="0" stroke-width="0.2"/>
<path d="M 573 736 Q 337 862 401 812" stroke="black" fill-opacity="0" stroke-width="0.2"/>
<path d="M 567 740 Q 320 859 416 810" stroke="black" fill-opacity="0" stroke-width="0.2"/>
<path d="M 562 745 Q 303 857 430 808" stroke="black" fill-opacity="0" stroke-width="0.2"/>
<path d="M 556 750 Q 287 853 444 804" stroke="black" fill-opacity="0" stroke-width="0.2"/>
<path d="M 550 754 Q 270 848 459 800" stroke="black" fill-opacity="0" stroke-width="0.2"/>
<path d="M 544 759 Q 254 843 473 796" stroke="black" fill-opacity="0" stroke-width="0.2"/>
<path d="M 538 763 Q 238 837 486 790" stroke="black" fill-opacity="0" stroke-width="0.2"/>
<path d="M 532 767 Q 222 830 500 784" stroke="black" fill-opacity="0" stroke-width="0.2"/>
<path d="M 526 771 Q 207 822 513 778" stroke="black" fill-opacity="0" stroke-width="0.2"/>
<path d="M 519 774 Q 192 813 526 771" stroke="black" fill-opacity="0" stroke-width="0.2"/>
<path d="M 513 778 Q 177 804 538 763" stroke="black" fill-opacity="0" stroke-width="0.2"/>
<path d="M 506 781 Q 163 794 550 754" stroke="black" fill-opacity="0" stroke-width="0.2"/>
<path d="M 500 784 Q 150 784 562 745" stroke="black" fill-opacity="0" stroke-width="0.2"/>
<path d="M 493 788 Q 137 773 573 736" stroke="black" fill-opacity="0" stroke-width="0.2"/>
<path d="M 486 790 Q 124 761 584 725" stroke="black" fill-opacity="0" stroke-width="0.2"/>
<path d="M 480 793 Q 112 748 594 715" stroke="black" fill-opacity="0" stroke-width="0.2"/>
<path d="M 473 796 Q 101 735 603 704" stroke="black" fill-opacity="0" stroke-width="0.2"/>
<path d="M 466 798 Q 90 722 613 692" stroke="black" fill-opacity="0" stroke-width="0.2"/>
<path d="M 459 800 Q 81 708 621 680" stroke="black" fill-opacity="0" stroke-width="0.2"/>
<path d="M 452 802 Q 71 693 629 668" stroke="black" fill-opacity="0" stroke-width="0.2"/>
<path d="M 444 804 Q 63 678 636 655" stroke="black" fill-opacity="0" stroke-width="0.2"/>
<path d="M 437 806 Q 55 663 643 642" stroke="black" fill-opacity="0" stroke-width="0.2"/>
<path d="M 430 808 Q 48 647 649 628" stroke="black" fill-opacity="0" stroke-width="0.2"/>
<path d="M 423 809 Q 42 631 654 614" stroke="black" fill-opacity="0" stroke-width="0.2"/>
<path d="M 416 810 Q 37 615 659 600" stroke="black" fill-opacity="0" stroke-width="0.2"/>
<path d="M 408 811 Q 32 598 663 586" stroke="black" fill-opacity="0" stroke-width="0.2"/>
<path d="M 401 812 Q 28 582 666 572" stroke="black" fill-opacity="0" stroke-width="0.2"/>
<path d="M 394 812 Q 25 565 668 557" stroke="black" fill-opacity="0" stroke-width="0.2"/>
<path d="M 386 813 Q 23 548 670 543" stroke="black" fill-opacity="0" stroke-width="0.2"/>
<path d="M 379 813 Q 22 530 671 528" stroke="black" fill-opacity="0" stroke-width="0.2"/>
<path d="M 372 813 Q 22 513 672 513" stroke="black" fill-opacity="0" stroke-width="0.2"/>
<path d="M 364 813 Q 22 496 671 499" stroke="black" fill-opacity="0" stroke-width="0.2"/>
<path d="M 357 813 Q 23 479 670 484" stroke="black" fill-opacity="0" stroke-width="0.2"/>
<path d="M 349 812 Q 25 462 668 469" stroke="black" fill-opacity="0" stroke-width="0.2"/>
<path d="M 342 812 Q 28 445 666 455" stroke="black" fill-opacity="0" stroke-width="0.2"/>
<path d="M 335 811 Q 32 428 663 440" stroke="black" fill-opacity="0" stroke-width="0.2"/>
<path d="M 328 810 Q 37 412 659 426" stroke="black" fill-opacity="0" stroke-width="0.2"/>
<path d="M 320 809 Q 42 395 654 412" stroke="black" fill-opacity="0" stroke-width="0.2"/>
<path d="M 313 808 Q 48 379 649 398" stroke="black" fill-opacity="0" stroke-width="0.2"/>
<path d="M 306 806 Q 55 364 643 385" stroke="black" fill-opacity="0" stroke-width="0.2"/>
<path d="M 299 804 Q 63 348 636 372" stroke="black" fill-opacity="0" stroke-width="0.2"/>
<path d="M 292 802 Q 71 333 629 359" stroke="black" fill-opacity="0" stroke-width="0.2"/>
<path d="M 284 800 Q 81 319 621 347" stroke="black" fill-opacity="0" stroke-width="0.2"/>
<path d="M 277 798 Q 90 305 613 335" stroke="black" fill-opacity="0" stroke-width="0.2"/>
<path d="M 270 796 Q 101 291 603 323" stroke="black" fill-opacity="0" stroke-width="0.2"/>
<path d="M 264 793 Q 112 278 594 312" stroke="black" fill-opacity="0" stroke-width="0.2"/>
<path d="M 257 790 Q 124 266 584 301" stroke="black" fill-opacity="0" stroke-width="0.2"/>
<path d="M 250 788 Q 137 254 573 291" stroke="black" fill-opacity="0" stroke-width="0.2"/>
<path d="M 243 784 Q 150 243 562 281" stroke="black" fill-opacity="0" stroke-width="0.2"/>
<path d="M 237 781 Q 163 232 550 272" stroke="black" fill-opacity="0" stroke-width="0.2"/>
<path d="M 230 778 Q 177 222 538 264" stroke="black" fill-opacity="0" stroke-width="0.2"/>
<path d="M 224 774 Q 192 213 526 256" stroke="black" fill-opacity="0" stroke-width="0.2"/>
<path d="M 217 771 Q 207 205 513 249" stroke="black" fill-opacity="0" stroke-width="0.2"/>
<path d="M 211 767 Q 222 197 500 242" stroke="black" fill-opacity="0" stroke-width="0.2"/>
<path d="M 205 763 Q 238 190 486 236" stroke="black" fill-opacity="0" stroke-width="0.2"/>
<path d="M 199 759 Q 254 184 473 231" stroke="black" fill-opacity="0" stroke-width="0.2"/>
<path d="M 193 754 Q 270 178 459 226" stroke="black" fill-opacity="0" stroke-width="0.2"/>
<path d="M 187 750 Q 287 174 444 222" stroke="black" fill-opacity="0" stroke-width="0.2"/>
<path d="M 181 745 Q 303 170 430 219" stroke="black" fill-opacity="0" stroke-width="0.2"/>
<path d="M 176 740 Q 320 167 416 217" stroke="black" fill-opacity="0" stroke-width="0.2"/>
<path d="M 170 736 Q 337 165 401 215" stroke="black" fill-opacity="0" stroke-width="0.2"/>
<path d="M 165 731 Q 354 164 386 214" stroke="black" fill-opacity="0" stroke-width="0.2"/>
<path d="M 159 725 Q 372 163 372 213" stroke="black" fill-opacity="0" stroke-width="0.2"/>
<path d="M 154 720 Q 389 164 357 214" stroke="black" fill-opacity="0" stroke-width="0.2"/>
<path d="M 149 715 Q 406 165 342 215" stroke="black" fill-opacity="0" stroke-width="0.2"/>
<path d="M 144 709 Q 423 167 328 217" stroke="black" fill-opacity="0" stroke-width="0.2"/>
<path d="M 140 704 Q 440 170 313 219" stroke="black" fill-opacity="0" stroke-width="0.2"/>
<path d="M 135 698 Q 457 174 299 222" stroke="black" fill-opacity="0" stroke-width="0.2"/>
<path d="M 131 692 Q 473 178 284 226" stroke="black" fill-opacity="0" stroke-width="0.2"/>
<path d="M 126 686 Q 489 184 270 231" stroke="black" fill-opacity="0" stroke-width="0.2"/>
<path d="M 122 680 Q 505 190 257 236" stroke="black" fill-opacity="0" stroke-width="0.2"/>
<path d="M 118 674 Q 521 197 243 242" stroke="black" fill-opacity="0" stroke-width="0.2"/>
<path d="M 114 668 Q 537 205 230 249" stroke="black" fill-opacity="0" stroke-width="0.2"/>
<path d="M 111 661 Q 551 213 217 256" stroke="black" fill-opacity="0" stroke-width="0.2"/>
<path d="M 107 655 Q 566 222 205 264" stroke="black" fill-opacity="0" stroke-width="0.2"/>
<path d="M 104 648 Q 580 232 193 272" stroke="black" fill-opacity="0" stroke-width="0.2"/>
<path d="M 100 642 Q 594 243 181 281" stroke="black" fill-opacity="0" stroke-width="0.2"/>
<path d="M 97 635 Q 607 254 170 291" stroke="black" fill-opacity="0" stroke-width="0.2"/>
<path d="M 94 628 Q 619 266 159 301" stroke="black" fill-opacity="0" stroke-width="0.2"/>
<path d="M 92 621 Q 631 278 149 312" stroke="black" fill-opacity="0" stroke-width="0.2"/>
<path d="M 89 614 Q 642 291 140 323" stroke="black" fill-opacity="0" stroke-width="0.2"/>
<path d="M 87 607 Q 653 305 131 335" stroke="black" fill-opacity="0" stroke-width="0.2"/>
<path d="M 84 600 Q 663 319 122 347" stroke="black" fill-opacity="0" stroke-width="0.2"/>
<path d="M 82 593 Q 672 333 114 359" stroke="black" fill-opacity="0" stroke-width="0.2"/>
<path d="M 81 586 Q 680 348 107 372" stroke="black" fill-opacity="0" stroke-width="0.2"/>
<path d="M 79 579 Q 688 364 100 385" stroke="black" fill-opacity="0" stroke-width="0.2"/>
<path d="M 77 572 Q 695 379 94 398" stroke="black" fill-opacity="0" stroke-width="0.2"/>
<path d="M 76 565 Q 701 395 89 412" stroke="black" fill-opacity="0" stroke-width="0.2"/>
<path d="M 75 557 Q 706 412 84 426" stroke="black" fill-opacity="0" stroke-width="0.2"/>
<path d="M 74 550 Q 711 428 81 440" stroke="black" fill-opacity="0" stroke-width="0.2"/>
<path d="M 73 543 Q 715 445 77 455" stroke="black" fill-opacity="0" stroke-width="0.2"/>
<path d="M 72 535 Q 718 462 75 469" stroke="black" fill-opacity="0" stroke-width="0.2"/>
<path d="M 72 528 Q 720 479 73 484" stroke="black" fill-opacity="0" stroke-width="0.2"/>
<path d="M 72 521 Q 721 496 72 499" stroke="black" fill-opacity="0" stroke-width="0.2"/>
<path d="M 72 513 Q 722 513 72 513" stroke="black" fill-opacity="0" stroke-width="0.2"/>
<path d="M 72 506 Q 721 530 72 528" stroke="black" fill-opacity="0" stroke-width="0.2"/>
<path d="M 72 499 Q 720 548 73 543" stroke="black" fill-opacity="0" stroke-width="0.2"/>
<path d="M 72 491 Q 718 565 75 557" stroke="black" fill-opacity="0" stroke-width="0.2"/>
<path d="M 73 484 Q 715 582 77 572" stroke="black" fill-opacity="0" stroke-width="0.2"/>
<path d="M 74 477 Q 711 598 81 586" stroke="black" fill-opacity="0" stroke-width="0.2"/>
<path d="M 75 469 Q 706 615 84 600" stroke="black" fill-opacity="0" stroke-width="0.2"/>
<path d="M 76 462 Q 701 631 89 614" stroke="black" fill-opacity="0" stroke-width="0.2"/>
<path d="M 77 455 Q 695 647 94 628" stroke="black" fill-opacity="0" stroke-width="0.2"/>
<path d="M 79 448 Q 688 663 100 642" stroke="black" fill-opacity="0" stroke-width="0.2"/>
<path d="M 81 440 Q 680 678 107 655" stroke="black" fill-opacity="0" stroke-width="0.2"/>
<path d="M 82 433 Q 672 693 114 668" stroke="black" fill-opacity="0" stroke-width="0.2"/>
<path d="M 84 426 Q 663 708 122 680" stroke="black" fill-opacity="0" stroke-width="0.2"/>
<path d="M 87 419 Q 653 722 131 692" stroke="black" fill-opacity="0" stroke-width="0.2"/>
<path d="M 89 412 Q 642 735 140 704" stroke="black" fill-opacity="0" stroke-width="0.2"/>
<path d="M 92 405 Q 631 748 149 715" stroke="black" fill-opacity="0" stroke-width="0.2"/>
<path d="M 94 398 Q 619 761 159 725" stroke="black" fill-opacity="0" stroke-width="0.2"/>
<path d="M 97 392 Q 607 773 170 736" stroke="black" fill-opacity="0" stroke-width="0.2"/>
<path d="M 100 385 Q 594 784 181 745" stroke="black" fill-opacity="0" stroke-width="0.2"/>
<path d="M 104 378 Q 580 794 193 754" stroke="black" fill-opacity="0" stroke-width="0.2"/>
<path d="M 107 372 Q 566 804 205 763" stroke="black" fill-opacity="0" stroke-width="0.2"/>
<path d="M 111 365 Q 551 813 217 771" stroke="black" fill-opacity="0" stroke-width="0.2"/>
<path d="M 114 359 Q 537 822 230 778" stroke="black" fill-opacity="0" stroke-width="0.2"/>
<path d="M 118 353 Q 521 830 243 784" stroke="black" fill-opacity="0" stroke-width="0.2"/>
<path d="M 122 347 Q 505 837 257 790" stroke="black" fill-opacity="0" stroke-width="0.2"/>
<path d="M 126 341 Q 489 843 270 796" stroke="black" fill-opacity="0" stroke-width="0.2"/>
<path d="M 131 335 Q 473 848 284 800" stroke="black" fill-opacity="0" stroke-width="0.2"/>
<path d="M 135 329 Q 457 853 299 804" stroke="black" fill-opacity="0" stroke-width="0.2"/>
<path d="M 140 323 Q 440 857 313 808" stroke="black" fill-opacity="0" stroke-width="0.2"/>
<path d="M 144 317 Q 423 859 328 810" stroke="black" fill-opacity="0" stroke-width="0.2"/>
<path d="M 149 312 Q 406 862 342 812" stroke="black" fill-opacity="0" stroke-width="0.2"/>
<path d="M 154 306 Q 389 863 357 813" stroke="black" fill-opacity="0" stroke-width="0.2"/>
<path d="M 159 301 Q 372 863 372 813" stroke="black" fill-opacity="0" stroke-width="0.2"/>
<path d="M 165 296 Q 354 863 386 813" stroke="black" fill-opacity="0" stroke-width="0.2"/>
<path d="M 170 291 Q 337 862 401 812" stroke="black" fill-opacity="0" stroke-width="0.2"/>
<path d="M 176 286 Q 320 859 416 810" stroke="black" fill-opacity="0" stroke-width="0.2"/>
<path d="M 181 281 Q 303 857 430 808" stroke="black" fill-opacity="0" stroke-width="0.2"/>
<path d="M 187 277 Q 287 853 444 804" stroke="black" fill-opacity="0" stroke-width="0.2"/>
<path d="M 193 272 Q 270 848 459 800" stroke="black" fill-opacity="0" stroke-width="0.2"/>
<path d="M 199 268 Q 254 843 473 796" stroke="black" fill-opacity="0" stroke-width="0.2"/>
<path d="M 205 264 Q 238 837 486 790" stroke="black" fill-opacity="0" stroke-width="0.2"/>
<path d="M 211 260 Q 222 830 500 784" stroke="black" fill-opacity="0" stroke-width="0.2"/>
<path d="M 217 256 Q 207 822 513 778" stroke="black" fill-opacity="0" stroke-width="0.2"/>
<path d="M 224 252 Q 192 813 526 771" stroke="black" fill-opacity="0" stroke-width="0.2"/>
<path d="M 230 249 Q 177 804 538 763" stroke="black" fill-opacity="0" stroke-width="0.2"/>
<path d="M 237 245 Q 163 794 550 754" stroke="black" fill-opacity="0" stroke-width="0.2"/>
<path d="M 243 242 Q 150 784 562 745" stroke="black" fill-opacity="0" stroke-width="0.2"/>
<path d="M 250 239 Q 137 773 573 736" stroke="black" fill-opacity="0" stroke-width="0.2"/>
<path d="M 257 236 Q 124 761 584 725" stroke="black" fill-opacity="0" stroke-width="0.2"/>
<path d="M 264 233 Q 112 748 594 715" stroke="black" fill-opacity="0" stroke-width="0.2"/>
<path d="M 270 231 Q 101 735 603 704" stroke="black" fill-opacity="0" stroke-width="0.2"/>
<path d="M 277 228 Q 90 722 613 692" stroke="black" fill-opacity="0" stroke-width="0.2"/>
<path d="M 284 226 Q 81 708 621 680" stroke="black" fill-opacity="0" stroke-width="0.2"/>
<path d="M 292 224 Q 71 693 629 668" stroke="black" fill-opacity="0" stroke-width="0.2"/>
<path d="M 299 222 Q 63 678 636 655" stroke="black" fill-opacity="0" stroke-width="0.2"/>
<path d="M 306 221 Q 55 663 643 642" stroke="black" fill-opacity="0" stroke-width="0.2"/>
<path d="M 313 219 Q 48 647 649 628" stroke="black" fill-opacity="0" stroke-width="0.2"/>
<path d="M 320 218 Q 42 631 654 614" stroke="black" fill-opacity="0" stroke-width="0.2"/>
<path d="M 328 217 Q 37 615 659 600" stroke="black" fill-opacity="0" stroke-width="0.2"/>
<path d="M 335 216 Q 32 598 663 586" stroke="black" fill-opacity="0" stroke-width="0.2"/>
<path d="M 342 215 Q 28 582 666 572" stroke="black" fill-opacity="0" stroke-width="0.2"/>
<path d="M 349 214 Q 25 565 668 557" stroke="black" fill-opacity="0" stroke-width="0.2"/>
<path d="M 357 214 Q 23 548 670 543" stroke="black" fill-opacity="0" stroke-width="0.2"/>
<path d="M 364 213 Q 22 530 671 528" stroke="black" fill-opacity="0" stroke-width="0.2"/>
<path d="M 372 213 Q 22 513 672 513" stroke="black" fill-opacity="0" stroke-width="0.2"/>
<path d="M 379 213 Q 22 496 671 499" stroke="black" fill-opacity="0" stroke-width="0.2"/>
<path d="M 386 214 Q 23 479 670 484" stroke="black" fill-opacity="0" stroke-width="0.2"/>
<path d="M 394 214 Q 25 462 668 469" stroke="black" fill-opacity="0" stroke-width="0.2"/>
<path d="M 401 215 Q 28 445 666 455" stroke="black" fill-opacity="0" stroke-width="0.2"/>
<path d="M 408 216 Q 32 428 663 440" stroke="black" fill-opacity="0" stroke-width="0.2"/>
<path d="M 416 217 Q 37 412 659 426" stroke="black" fill-opacity="0" stroke-width="0.2"/>
<path d="M 423 218 Q 42 395 654 412" stroke="black" fill-opacity="0" stroke-width="0.2"/>
<path d="M 430 219 Q 48 379 649 398" stroke="black" fill-opacity="0" stroke-width="0.2"/>
<path d="M 437 221 Q 55 364 643 385" stroke="black" fill-opacity="0" stroke-width="0.2"/>
<path d="M 444 222 Q 63 348 636 372" stroke="black" fill-opacity="0" stroke-width="0.2"/>
<path d="M 452 224 Q 71 333 629 359" stroke="black" fill-opacity="0" stroke-width="0.2"/>
<path d="M 459 226 Q 81 319 621 347" stroke="black" fill-opacity="0" stroke-width="0.2"/>
<path d="M 466 228 Q 90 305 613 335" stroke="black" fill-opacity="0" stroke-width="0.2"/>
<path d="M 473 231 Q 101 291 603 323" stroke="black" fill-opacity="0" stroke-width="0.2"/>
<path d="M 480 233 Q 112 278 594 312" stroke="black" fill-opacity="0" stroke-width="0.2"/>
<path d="M 486 236 Q 124 266 584 301" stroke="black" fill-opacity="0" stroke-width="0.2"/>
<path d="M 493 239 Q 137 254 573 291" stroke="black" fill-opacity="0" stroke-width="0.2"/>
<path d="M 500 242 Q 150 243 562 281" stroke="black" fill-opacity="0" stroke-width="0.2"/>
<path d="M 506 245 Q 163 232 550 272" stroke="black" fill-opacity="0" stroke-width="0.2"/>
<path d="M 513 249 Q 177 222 538 264" stroke="black" fill-opacity="0" stroke-width="0.2"/>
<path d="M 519 252 Q 192 213 526 256" stroke="black" fill-opacity="0" stroke-width="0.2"/>
<path d="M 526 256 Q 207 205 513 249" stroke="black" fill-opacity="0" stroke-width="0.2"/>
<path d="M 532 260 Q 222 197 500 242" stroke="black" fill-opacity="0" stroke-width="0.2"/>
<path d="M 538 264 Q 238 190 486 236" stroke="black" fill-opacity="0" stroke-width="0.2"/>
<path d="M 544 268 Q 254 184 473 231" stroke="black" fill-opacity="0" stroke-width="0.2"/>
<path d="M 550 272 Q 270 178 459 226" stroke="black" fill-opacity="0" stroke-width="0.2"/>
<path d="M 556 277 Q 287 174 444 222" stroke="black" fill-opacity="0" stroke-width="0.2"/>
<path d="M 562 281 Q 303 170 430 219" stroke="black" fill-opacity="0" stroke-width="0.2"/>
<path d="M 567 286 Q 320 167 416 217" stroke="black" fill-opacity="0" stroke-width="0.2"/>
<path d="M 573 291 Q 337 165 401 215" stroke="black" fill-opacity="0" stroke-width="0.2"/>
<path d="M 578 296 Q 354 164 386 214" stroke="black" fill-opacity="0" stroke-width="0.2"/>
<path d="M 584 301 Q 372 163 372 213" stroke="black" fill-opacity="0" stroke-width="0.2"/>
<path d="M 589 306 Q 389 164 357 214" stroke="black" fill-opacity="0" stroke-width="0.2"/>
<path d="M 594 312 Q 406 165 342 215" stroke="black" fill-opacity="0" stroke-width="0.2"/>
<path d="M 599 317 Q 423 167 328 217" stroke="black" fill-opacity="0" stroke-width="0.2"/>
<path d="M 603 323 Q 440 170 313 219" stroke="black" fill-opacity="0" stroke-width="0.2"/>
<path d="M 608 329 Q 457 174 299 222" stroke="black" fill-opacity="0" stroke-width="0.2"/>
<path d="M 613 335 Q 473 178 284 226" stroke="black" fill-opacity="0" stroke-width="0.2"/>
<path d="M 617 341 Q 489 184 270 231" stroke="black" fill-opacity="0" stroke-width="0.2"/>
<path d="M 621 347 Q 505 190 257 236" stroke="black" fill-opacity="0" stroke-width="0.2"/>
<path d="M 625 353 Q 521 197 243 242" stroke="black" fill-opacity="0" stroke-width="0.2"/>
<path d="M 629 359 Q 537 205 230 249" stroke="black" fill-opacity="0" stroke-width="0.2"/>
<path d="M 633 365 Q 551 213 217 256" stroke="black" fill-opacity="0" stroke-width="0.2"/>
<path d="M 636 372 Q 566 222 205 264" stroke="black" fill-opacity="0" stroke-width="0.2"/>
<path d="M 640 378 Q 580 232 193 272" stroke="black" fill-opacity="0" stroke-width="0.2"/>
<path d="M 643 385 Q 594 243 181 281" stroke="black" fill-opacity="0" stroke-width="0.2"/>
<path d="M 646 392 Q 607 254 170 291" stroke="black" fill-opacity="0" stroke-width="0.2"/>
<path d="M 649 398 Q 619 266 159 301" stroke="black" fill-opacity="0" stroke-width="0.2"/>
<path d="M 651 405 Q 631 278 149 312" stroke="black" fill-opacity="0" stroke-width="0.2"/>
<path d="M 654 412 Q 642 291 140 323" stroke="black" fill-opacity="0" stroke-width="0.2"/>
<path d="M 656 419 Q 653 305 131 335" stroke="black" fill-opacity="0" stroke-width="0.2"/>
<path d="M 659 426 Q 663 319 122 347" stroke="black" fill-opacity="0" stroke-width="0.2"/>
<path d="M 661 433 Q 672 333 114 359" stroke="black" fill-opacity="0" stroke-width="0.2"/>
<path d="M 663 440 Q 680 348 107 372" stroke="black" fill-opacity="0" stroke-width="0.2"/>
<path d="M 664 448 Q 688 364 100 385" stroke="black" fill-opacity="0" stroke-width="0.2"/>
<path d="M 666 455 Q 695 379 94 398" stroke="black" fill-opacity="0" stroke-width="0.2"/>
<path d="M 667 462 Q 701 395 89 412" stroke="black" fill-opacity="0" stroke-width="0.2"/>
<path d="M 668 469 Q 706 412 84 426" stroke="black" fill-opacity="0" stroke-width="0.2"/>
<path d="M 669 477 Q 711 428 81 440" stroke="black" fill-opacity="0" stroke-width="0.2"/>
<path d="M 670 484 Q 715 445 77 455" stroke="black" fill-opacity="0" stroke-width="0.2"/>
<path d="M 671 491 Q 718 462 75 469" stroke="black" fill-opacity="0" stroke-width="0.2"/>
<path d="M 671 499 Q 720 479 73 484" stroke="black" fill-opacity="0" stroke-width="0.2"/>
<path d="M 671 506 Q 721 496 72 499" stroke="black" fill-opacity="0" stroke-width="0.2"/>
</svg>
